<svg xmlns="http://www.w3.org/2000/svg" aria-hidden="true" overflow="hidden" style="position:absolute;width:0;height:0"><defs><symbol id="icon-facebook" viewBox="0 0 32 32"><path d="M19.52 4.64h.96v3.6h-1.2c-.48 0-.96 0-1.2.24s-.24.48-.24 1.04v1.28h2.64v3.04h-2.64v13.2h-4.08V13.76H11.6v-3.04h2.16V9.68c0-1.76.24-3.04.72-3.6.72-1.04 2.16-1.52 4.32-1.52.24.08.48.08.72.08z"/></symbol><symbol id="icon-instagram" viewBox="0 0 32 32"><path d="M28.718 10.755a9.242 9.242 0 0 0-.617-3.207l.021.063a6.588 6.588 0 0 0-3.7-3.722l-.044-.015a9.192 9.192 0 0 0-3.097-.596h-.01C19.904 3.217 19.47 3.2 16 3.2c-3.472 0-3.917 0-5.274.078a9.389 9.389 0 0 0-3.106.597 6.58 6.58 0 0 0-3.727 3.693l-.015.044a9.084 9.084 0 0 0-.595 3.091v.009c-.062 1.367-.08 1.8-.08 5.265 0 3.466 0 3.909.08 5.265a9.374 9.374 0 0 0 .594 3.104 6.591 6.591 0 0 0 3.701 3.721l.044.015c.917.369 1.98.6 3.091.637h.015c1.369.062 1.803.08 5.274.08 3.472 0 3.917 0 5.274-.08a9.383 9.383 0 0 0 3.172-.616l-.064.022a6.594 6.594 0 0 0 3.727-3.693l.016-.044a9.29 9.29 0 0 0 .595-3.103c.062-1.366.08-1.799.08-5.266-.002-3.465-.002-3.905-.082-5.264zM15.989 22.531h-.006a6.566 6.566 0 0 1-6.566-6.561 6.564 6.564 0 0 1 6.565-6.561h.007c3.629 0 6.571 2.937 6.571 6.56a6.567 6.567 0 0 1-6.567 6.562h-.005zm6.834-11.835a1.53 1.53 0 1 1 0-3.06l.042-.001a1.53 1.53 0 1 1 0 3.06l-.044-.001h.002z"/><path d="m15.992 19.976.068.001a4.005 4.005 0 1 0-.071-8.009h.004a4.006 4.006 0 0 0-.004 8.008h.004z"/></symbol><symbol id="icon-youtube" viewBox="0 0 32 32"><path d="M24.24 6c-1.36-.08-4.16-.16-8.4-.16h-.56c-4.08 0-6.8.08-8.16.24-1.84.16-3.12.64-3.84 1.28-.64.56-1.12 1.6-1.28 2.96-.08.88-.16 2.72-.16 5.52v.4c0 2.64.08 4.48.24 5.36.24 1.28.64 2.24 1.44 2.8.8.64 2.16 1.04 4.08 1.2 1.36.08 4.16.16 8.4.16h.56c4.08 0 6.8-.08 8.16-.24 1.84-.16 3.12-.64 3.84-1.28.64-.56 1.12-1.6 1.28-2.96.08-.88.16-2.72.16-5.52v-.4c0-2.64-.08-4.48-.24-5.36-.24-1.28-.64-2.24-1.44-2.8-.8-.64-2.16-1.04-4.08-1.2zm-3.12 9.84-8.8 5.28V10.56l8.8 5.28z"/></symbol><symbol id="icon-slider-right" viewBox="0 0 32 32"><path d="m12 24 8-8-8-8"/></symbol><symbol id="icon-slider-left" viewBox="0 0 32 32"><path d="m20 24-8-8 8-8"/></symbol><symbol id="icon-cross" viewBox="0 0 32 32"><path d="M24 8 8 24M8 8l16 16"/></symbol><symbol id="icon-heart" viewBox="0 0 32 32"><path d="M27.787 6.147C26.46 4.819 24.626 3.998 22.6 3.998s-3.859.821-5.187 2.149L16 7.56l-1.413-1.413A7.335 7.335 0 0 0 4.213 16.521L16 28.308l11.787-11.787c1.328-1.327 2.149-3.161 2.149-5.187s-.821-3.859-2.149-5.187z"/></symbol><symbol id="icon-menu-mobile" viewBox="0 0 32 32"><path d="M2.667 7.993c0-.733.595-1.327 1.327-1.327h10.68a1.327 1.327 0 1 1 0 2.654H3.994a1.327 1.327 0 0 1-1.327-1.327zm0 8.007c0-.733.595-1.327 1.327-1.327h24.013a1.327 1.327 0 1 1 0 2.654H3.994A1.327 1.327 0 0 1 2.667 16zm1.326 6.68a1.327 1.327 0 1 0 0 2.654h16.013a1.327 1.327 0 1 0 0-2.654H3.993z"/></symbol><symbol id="cross-1" viewBox="0 0 32 32"><path stroke-linecap="round" stroke-linejoin="round" stroke-width="2.971" d="M29.714 2.286 2.285 29.715"/></symbol><symbol id="cross-2" viewBox="0 0 32 32"><path stroke-linecap="round" stroke-linejoin="round" stroke-width="2.971" d="m2.286 2.286 27.429 27.429"/></symbol></defs></svg>